<?xml version="1.0" standalone="no"?>
<!DOCTYPE svg PUBLIC "-//W3C//DTD SVG 20010904//EN"
 "http://www.w3.org/TR/2001/REC-SVG-20010904/DTD/svg10.dtd">
<svg version="1.0" xmlns="http://www.w3.org/2000/svg"
 width="512.000000pt" height="512.000000pt" viewBox="0 0 512.000000 512.000000"
 preserveAspectRatio="xMidYMid meet">
<metadata>
Created by potrace 1.16, written by Peter Selinger 2001-2019
</metadata>
<g transform="translate(0.000000,512.000000) scale(0.100000,-0.100000)"
fill="#000000" stroke="none">
<path d="M1489 5106 c-86 -30 -144 -84 -183 -166 -21 -44 -21 -57 -26 -880
l-5 -835 -78 -155 c-72 -142 -78 -159 -74 -203 4 -43 35 -94 319 -520 l316
-473 5 -195 c3 -132 10 -211 21 -249 64 -226 256 -408 481 -455 97 -20 493
-20 590 0 225 47 417 229 481 455 11 38 18 117 21 249 l5 195 316 473 c284
426 315 477 319 520 4 44 -2 61 -74 203 l-78 155 -5 835 c-5 828 -5 835 -27
881 -52 113 -139 170 -269 177 -98 5 -170 -13 -240 -61 -92 -63 -111 -102
-249 -518 l-127 -379 -368 0 -368 0 -127 379 c-138 416 -157 455 -248 518 -27
18 -72 40 -100 48 -61 18 -179 19 -228 1z m639 -1931 c40 -17 215 -183 238
-227 33 -63 6 -148 -58 -189 -27 -16 -43 -19 -83 -14 -65 8 -84 8 -117 0 -102
-26 -200 80 -166 180 11 33 11 47 1 78 -24 68 16 148 87 176 36 14 56 13 98
-4z m959 4 c74 -27 114 -106 90 -176 -10 -31 -10 -45 1 -78 34 -100 -64 -206
-166 -180 -33 8 -52 8 -117 0 -40 -5 -56 -2 -83 14 -64 41 -91 126 -58 189 23
42 197 209 236 226 42 18 60 19 97 5z"/>
<path d="M83 3021 c-24 -11 -51 -34 -63 -53 -20 -33 -20 -47 -20 -1451 0
-1558 -4 -1445 58 -1492 21 -15 43 -20 93 -20 61 0 69 3 110 36 80 65 125 84
209 84 58 0 85 -5 121 -22 25 -13 48 -23 52 -23 4 0 7 242 7 538 0 515 1 538
20 569 59 98 199 93 249 -9 21 -44 21 -53 21 -572 0 -499 1 -528 18 -521 110
49 168 54 250 26 53 -18 53 -18 61 3 5 11 82 242 172 512 l163 492 -42 90
c-59 127 -82 229 -89 400 l-6 142 -36 0 c-107 1 -246 59 -330 140 -99 95 -139
188 -152 360 -20 244 -80 390 -223 538 -144 150 -314 230 -522 247 -66 5 -86
3 -121 -14z"/>
<path d="M4890 3034 c-217 -33 -357 -102 -491 -241 -80 -82 -130 -158 -169
-256 -33 -82 -60 -220 -60 -306 -1 -215 -163 -414 -381 -466 -35 -8 -80 -15
-100 -15 l-36 0 -6 -142 c-7 -171 -30 -273 -89 -400 l-42 -90 163 -492 c90
-270 167 -501 172 -512 8 -21 8 -21 61 -3 82 28 140 23 251 -26 16 -7 17 22
17 521 0 519 0 528 21 572 50 102 190 107 249 9 19 -31 20 -54 20 -569 0 -296
3 -538 7 -538 4 0 27 10 52 23 36 17 63 22 121 22 84 0 129 -19 209 -84 41
-33 49 -36 110 -36 50 0 72 5 93 20 62 47 58 -66 58 1492 0 1404 0 1418 -20
1451 -34 56 -112 80 -210 66z"/>
<path d="M1686 443 c-76 -230 -141 -424 -144 -430 -3 -10 204 -13 1018 -13
814 0 1021 3 1018 13 -3 6 -68 200 -144 430 -76 229 -142 417 -145 417 -4 0
-45 -24 -92 -53 -97 -61 -231 -110 -354 -127 -53 -8 -169 -10 -335 -8 -215 4
-264 8 -329 26 -104 28 -191 66 -272 118 -37 24 -71 44 -75 44 -4 0 -70 -188
-146 -417z"/>
</g>
</svg>
